<svg width="48" height="48" viewBox="0 0 49 48" fill="none" xmlns="http://www.w3.org/2000/svg">
<path d="M29.1666 21C29.1666 21.3978 29.0086 21.7794 28.7273 22.0607C28.446 22.342 28.0645 22.5 27.6666 22.5H21.6666C21.2688 22.5 20.8873 22.342 20.606 22.0607C20.3247 21.7794 20.1666 21.3978 20.1666 21C20.1666 20.6022 20.3247 20.2206 20.606 19.9393C20.8873 19.658 21.2688 19.5 21.6666 19.5H27.6666C28.0645 19.5 28.446 19.658 28.7273 19.9393C29.0086 20.2206 29.1666 20.6022 29.1666 21ZM44.1666 13.5V37.5C44.1666 38.2957 43.8506 39.0587 43.2879 39.6213C42.7253 40.1839 41.9623 40.5 41.1666 40.5H8.16663C7.37098 40.5 6.60791 40.1839 6.04531 39.6213C5.4827 39.0587 5.16663 38.2957 5.16663 37.5V13.5C5.16663 12.7044 5.4827 11.9413 6.04531 11.3787C6.60791 10.8161 7.37098 10.5 8.16663 10.5H15.6666V9C15.6666 7.80653 16.1407 6.66193 16.9846 5.81802C17.8286 4.97411 18.9732 4.5 20.1666 4.5H29.1666C30.3601 4.5 31.5047 4.97411 32.3486 5.81802C33.1925 6.66193 33.6666 7.80653 33.6666 9V10.5H41.1666C41.9623 10.5 42.7253 10.8161 43.2879 11.3787C43.8506 11.9413 44.1666 12.7044 44.1666 13.5ZM18.6666 10.5H30.6666V9C30.6666 8.60218 30.5086 8.22064 30.2273 7.93934C29.946 7.65804 29.5645 7.5 29.1666 7.5H20.1666C19.7688 7.5 19.3873 7.65804 19.106 7.93934C18.8247 8.22064 18.6666 8.60218 18.6666 9V10.5ZM41.1666 21.3019V13.5H8.16663V21.3019C13.2295 24.0577 18.9023 25.501 24.6666 25.5C30.431 25.501 36.1037 24.0577 41.1666 21.3019Z" fill="#DAFF02"/>
</svg>
