<svg width="48" height="48" viewBox="0 0 48 48" fill="none" xmlns="http://www.w3.org/2000/svg">
<path d="M24 7.5C20.4399 7.5 16.9598 8.55568 13.9997 10.5335C11.0396 12.5114 8.73254 15.3226 7.37016 18.6117C6.00778 21.9008 5.65132 25.52 6.34586 29.0116C7.04039 32.5033 8.75473 35.7106 11.2721 38.2279C13.7894 40.7453 16.9967 42.4596 20.4884 43.1541C23.98 43.8487 27.5992 43.4922 30.8883 42.1298C34.1774 40.7675 36.9886 38.4604 38.9664 35.5003C40.9443 32.5402 42 29.0601 42 25.5C41.9945 20.7278 40.0964 16.1526 36.7219 12.7781C33.3474 9.40364 28.7722 7.50546 24 7.5ZM32.5612 19.0613L25.0612 26.5613C24.9219 26.7006 24.7564 26.8112 24.5743 26.8866C24.3922 26.962 24.1971 27.0008 24 27.0008C23.8029 27.0008 23.6077 26.962 23.4256 26.8866C23.2436 26.8112 23.0781 26.7006 22.9387 26.5613C22.7994 26.4219 22.6888 26.2564 22.6134 26.0743C22.538 25.8923 22.4992 25.6971 22.4992 25.5C22.4992 25.3029 22.538 25.1077 22.6134 24.9257C22.6888 24.7436 22.7994 24.5781 22.9387 24.4388L30.4387 16.9388C30.5781 16.7994 30.7436 16.6888 30.9256 16.6134C31.1077 16.538 31.3029 16.4992 31.5 16.4992C31.6971 16.4992 31.8922 16.538 32.0743 16.6134C32.2564 16.6888 32.4219 16.7994 32.5612 16.9388C32.7006 17.0781 32.8112 17.2436 32.8866 17.4257C32.962 17.6077 33.0008 17.8029 33.0008 18C33.0008 18.1971 32.962 18.3923 32.8866 18.5743C32.8112 18.7564 32.7006 18.9219 32.5612 19.0613ZM18 3C18 2.60218 18.158 2.22064 18.4393 1.93934C18.7206 1.65804 19.1022 1.5 19.5 1.5H28.5C28.8978 1.5 29.2794 1.65804 29.5607 1.93934C29.842 2.22064 30 2.60218 30 3C30 3.39782 29.842 3.77936 29.5607 4.06066C29.2794 4.34196 28.8978 4.5 28.5 4.5H19.5C19.1022 4.5 18.7206 4.34196 18.4393 4.06066C18.158 3.77936 18 3.39782 18 3Z" fill="#DAFF02"/>
</svg>
