<svg width="564" height="521" viewBox="0 0 564 521" fill="none" xmlns="http://www.w3.org/2000/svg">
<path d="M232.341 317.793L237.163 326.145L228.746 331.004L223.924 322.653L232.341 317.793ZM258.839 324.766L254.017 316.414L262.434 311.555L257.612 303.203L249.195 308.062L244.373 299.71L235.956 304.57L245.612 321.294L237.195 326.153L242.017 334.505L258.851 324.786L258.839 324.766ZM233.568 339.356L238.39 347.708L246.807 342.848L241.985 334.497L233.568 339.356ZM260.078 346.349L268.495 341.49L263.673 333.138L246.818 342.869L256.474 359.593L264.891 354.733L260.057 346.361L260.078 346.349ZM248.057 364.452L252.879 372.804L261.296 367.945L256.474 359.593L248.057 364.452ZM405.876 329.178C382.111 335.42 365.876 356.038 365.434 380.475L363.599 486.778L276.911 336.63L268.495 341.49L278.15 358.214L261.296 367.945L266.118 376.297L274.535 371.437L284.19 388.161L275.773 393.021L270.951 384.669L262.535 389.528L362.341 562.398L401.558 539.756L404.29 380.887C404.467 370.331 412.966 367.28 415.569 366.596C418.172 365.912 427.055 364.386 432.326 373.516L529.828 542.394L563.537 522.932L466.035 354.054C453.797 332.953 429.64 322.936 405.876 329.178Z" fill="#DAFF02"/>
<path d="M206.733 215.076L257.611 303.2L249.195 308.06L244.373 299.708L235.956 304.567L245.611 321.291L237.195 326.151L232.373 317.799L223.956 322.658L173.066 234.514C167.795 225.385 158.911 226.911 156.308 227.595C153.705 228.279 145.227 231.318 145.03 241.885L142.3 400.808L103.104 423.438L-40.1703 175.279L-40.5366 174.645L-6.828 155.183L-6.46163 155.817L104.359 347.765L106.174 241.474C106.583 217.029 122.85 196.419 146.615 190.177C170.38 183.935 194.525 193.931 206.733 215.076ZM233.567 339.353L241.984 334.494L237.162 326.142L228.745 331.002L233.567 339.353ZM263.672 333.135L268.494 341.487L276.911 336.628L262.433 311.552L254.016 316.411L258.838 324.763L241.984 334.494L246.806 342.846L263.66 333.115L263.672 333.135ZM264.911 354.719L256.494 359.578L261.316 367.93L278.17 358.199L268.515 341.475L260.098 346.335L264.932 354.707L264.911 354.719ZM246.818 342.866L238.401 347.726L248.057 364.45L256.473 359.59L246.818 342.866ZM262.534 389.525L270.951 384.666L275.773 393.018L284.19 388.158L274.534 371.434L266.117 376.294L261.295 367.942L252.878 372.801L262.534 389.525Z" fill="#FF46FA"/>
</svg>
