<svg width="134" height="64" viewBox="0 0 134 64" fill="none" xmlns="http://www.w3.org/2000/svg">
<g clip-path="url(#clip0_142_661)">
<path d="M39.159 27.2173C41.435 27.2173 43.1408 26.1999 44.0517 24.8818L47.4279 26.8389C45.6843 29.4 42.8405 30.9437 39.1236 30.9437C32.8658 30.9437 28.8083 26.6886 28.8083 21.0376C28.8083 15.4643 32.8658 11.1315 38.8208 11.1315C44.4706 11.1315 48.3388 15.6498 48.3388 21.0752C48.3388 21.639 48.2631 22.243 48.1874 22.7692H33.0929C33.7364 25.7112 36.1259 27.2173 39.159 27.2173ZM44.2031 19.4588C43.6353 16.2186 41.2458 14.8253 38.7805 14.8253C35.7096 14.8253 33.6228 16.6321 33.0551 19.4588H44.2031ZM70.7484 11.6252V30.4575H66.653V27.7461C65.2122 29.7433 62.974 30.9487 60.0167 30.9487C54.8591 30.9487 50.5745 26.6184 50.5745 21.0426C50.5745 15.4317 54.8591 11.1365 60.0167 11.1365C62.974 11.1365 65.2122 12.3419 66.653 14.299V11.6252H70.7484ZM66.653 21.0426C66.653 17.5393 64.0742 15.0157 60.6602 15.0157C57.2461 15.0157 54.6673 17.5393 54.6673 21.0426C54.6673 24.546 57.2461 27.0695 60.6602 27.0695C64.0742 27.067 66.653 24.5435 66.653 21.0426ZM93.3144 4.09473V30.4575H89.2191V27.7461C87.7783 29.7433 85.5401 30.9487 82.5827 30.9487C77.4251 30.9487 73.1405 26.6184 73.1405 21.0426C73.1405 15.4317 77.4251 11.1365 82.5827 11.1365C85.5401 11.1365 87.7783 12.3419 89.2191 14.299V4.09473H93.3144ZM89.2191 21.0426C89.2191 17.5393 86.6402 15.0157 83.2262 15.0157C79.8121 15.0157 77.2333 17.5393 77.2333 21.0426C77.2333 24.546 79.8121 27.0695 83.2262 27.0695C86.6402 27.067 89.2191 24.5435 89.2191 21.0426ZM65.2526 38.1258V56.9582H61.1573V54.2467C59.7164 56.244 57.4783 57.4494 54.5209 57.4494C49.3633 57.4494 45.0787 53.119 45.0787 47.5433C45.0787 41.9324 49.3633 37.6372 54.5209 37.6372C57.4783 37.6372 59.7164 38.8425 61.1573 40.7997V38.1258H65.2526ZM61.1573 47.5408C61.1573 44.0374 58.5784 41.5139 55.1644 41.5139C51.7503 41.5139 49.1715 44.0374 49.1715 47.5408C49.1715 51.0441 51.7503 53.5676 55.1644 53.5676C58.5784 53.5676 61.1573 51.0441 61.1573 47.5408ZM85.3912 45.3956V56.9582H81.2959V45.8091C81.2959 42.9473 79.6279 41.4412 77.0491 41.4412C74.3567 41.4412 72.2321 43.0225 72.2321 46.8641V56.9582H68.1368V38.1258H72.2321V40.5366C73.4837 38.5794 75.5326 37.6372 78.1089 37.6372C82.3582 37.6372 85.3912 40.499 85.3912 45.3956ZM105.151 45.3956V56.9582H101.056V45.8091C101.056 42.9473 99.388 41.4412 96.8092 41.4412C94.1168 41.4412 91.9922 43.0225 91.9922 46.8641V56.9582H87.8969V38.1258H91.9922V40.5366C93.2438 38.5794 95.2927 37.6372 97.8715 37.6372C102.116 37.6372 105.151 40.499 105.151 45.3956ZM117.705 53.718C119.981 53.718 121.687 52.7005 122.598 51.3824L125.974 53.3421C124.23 55.9032 121.384 57.4469 117.669 57.4469C111.412 57.4469 107.354 53.1917 107.354 47.5408C107.354 41.9675 111.412 37.6346 117.367 37.6346C123.016 37.6346 126.885 42.1529 126.885 47.5783C126.885 48.1422 126.809 48.7461 126.733 49.2724H111.639C112.282 52.2119 114.669 53.718 117.705 53.718ZM122.749 45.9595C122.179 42.7193 119.792 41.3259 117.326 41.3259C114.255 41.3259 112.169 43.1327 111.601 45.9595H122.749ZM129.347 29.4652H133.443V56.9582H129.347V29.4652ZM0.557251 47.5408C0.557251 41.9299 4.84184 37.6346 10.5698 37.6346C14.2866 37.6346 17.5089 39.5542 19.0279 42.4937L15.5003 44.5286C14.6651 42.7594 12.808 41.6292 10.5319 41.6292C7.19358 41.6292 4.65512 44.1527 4.65512 47.5433C4.65512 50.9338 7.1961 53.4574 10.5319 53.4574C12.808 53.4574 14.6651 52.2896 15.576 50.5579L19.1036 52.5552C17.5114 55.5298 14.2866 57.4519 10.5698 57.4519C4.84184 57.4469 0.557251 53.1165 0.557251 47.5408Z" fill="white"/>
<path d="M23.0123 27.6084V28.6308H21.9828V27.6084H23.0123ZM25.0738 29.6532V28.6308H26.1033V27.6084H25.0738V26.5859H24.0443V28.6333H23.0148V29.6558H25.0738V29.6532ZM21.9828 29.6532V30.6757H23.0123V29.6532H21.9828ZM24.0443 31.7006H25.0738V30.6782H23.0123V32.7256H24.0418V31.7006H24.0443ZM21.9828 32.7256V33.748H23.0123V32.7256H21.9828ZM38.3288 37.8528C35.8181 37.1661 33.2368 38.1986 31.9019 40.4189L26.1033 50.0819V31.7006H25.0738V33.748H23.0123V34.7704H24.0418V36.8178H23.0123V35.7954H21.9828V56.9583H26.7796L35.4447 42.5164C36.02 41.5566 36.9612 41.727 37.2362 41.8022C37.5113 41.8774 38.407 42.2082 38.407 43.3258V64.0001H42.5301V43.3258C42.5251 40.7397 40.8395 38.5394 38.3288 37.8528Z" fill="#FF46FA"/>
<path d="M26.1033 16.8201V27.6083H25.0738V26.5858H24.0443V28.6332H23.0148V27.6108H21.9853V16.8201C21.9853 15.7024 21.0895 15.3716 20.8145 15.2964C20.5394 15.2213 19.6007 15.0509 19.0229 16.0107L10.3553 30.4576H5.561V0.0776851V0H9.68411V0.0776851V23.5762L15.4802 13.9132C16.8125 11.6904 19.3964 10.6604 21.9071 11.347C24.4178 12.0337 26.1033 14.2314 26.1033 16.8201ZM21.9828 29.6532H23.0123V28.6307H21.9828V29.6532ZM25.0738 30.6781V31.7005H26.1033V28.6307H25.0738V29.6532H23.0123V30.6756H25.0738V30.6781ZM24.0443 32.7255H23.0148V33.7479H25.0763V31.7005H24.0468V32.7255H24.0443ZM23.0123 30.6781H21.9828V32.7255H23.0123V30.6781ZM21.9828 35.7953H23.0123V36.8177H24.0418V34.7704H23.0123V33.7479H21.9828V35.7953Z" fill="#DAFF02"/>
</g>
<defs>
<clipPath id="clip0_142_661">
<rect width="132.885" height="64" fill="white" transform="translate(0.557251)"/>
</clipPath>
</defs>
</svg>
