<svg width="167" height="80" viewBox="0 0 167 80" fill="none" xmlns="http://www.w3.org/2000/svg">
<path d="M48.2937 34.0219C51.1412 34.0219 53.2753 32.7501 54.4149 31.1024L58.6388 33.5489C56.4574 36.7503 52.8996 38.6799 48.2495 38.6799C40.4205 38.6799 35.3443 33.3609 35.3443 26.2972C35.3443 19.3306 40.4205 13.9146 47.8707 13.9146C54.9389 13.9146 59.7784 19.5624 59.7784 26.3442C59.7784 27.049 59.6837 27.8039 59.589 28.4618H40.7046C41.5096 32.1393 44.4992 34.0219 48.2937 34.0219ZM54.6043 24.3238C53.894 20.2735 50.9044 18.5319 47.8202 18.5319C43.9783 18.5319 41.3676 20.7904 40.6573 24.3238H54.6043ZM87.8145 14.5317V38.0722H82.6909V34.6828C80.8884 37.1794 78.0882 38.6861 74.3884 38.6861C67.9357 38.6861 62.5754 33.2732 62.5754 26.3035C62.5754 19.2899 67.9357 13.9209 74.3884 13.9209C78.0882 13.9209 80.8884 15.4276 82.6909 17.874V14.5317H87.8145ZM82.6909 26.3035C82.6909 21.9243 79.4646 18.7699 75.1934 18.7699C70.9221 18.7699 67.6958 21.9243 67.6958 26.3035C67.6958 30.6827 70.9221 33.8371 75.1934 33.8371C79.4646 33.8339 82.6909 30.6796 82.6909 26.3035ZM116.046 5.11865V38.0722H110.923V34.6828C109.12 37.1794 106.32 38.6861 102.62 38.6861C96.1676 38.6861 90.8072 33.2732 90.8072 26.3035C90.8072 19.2899 96.1676 13.9209 102.62 13.9209C106.32 13.9209 109.12 15.4276 110.923 17.874V5.11865H116.046ZM110.923 26.3035C110.923 21.9243 107.696 18.7699 103.425 18.7699C99.154 18.7699 95.9277 21.9243 95.9277 26.3035C95.9277 30.6827 99.154 33.8371 103.425 33.8371C107.696 33.8339 110.923 30.6796 110.923 26.3035ZM80.9389 47.6575V71.198H75.8153V67.8086C74.0127 70.3052 71.2126 71.8119 67.5127 71.8119C61.0601 71.8119 55.6997 66.399 55.6997 59.4293C55.6997 52.4157 61.0601 47.0467 67.5127 47.0467C71.2126 47.0467 74.0127 48.5534 75.8153 50.9998V47.6575H80.9389ZM75.8153 59.4262C75.8153 55.047 72.589 51.8926 68.3177 51.8926C64.0465 51.8926 60.8202 55.047 60.8202 59.4262C60.8202 63.8053 64.0465 66.9597 68.3177 66.9597C72.589 66.9597 75.8153 63.8053 75.8153 59.4262ZM106.134 56.7448V71.198H101.01V57.2616C101.01 53.6844 98.9235 51.8017 95.6972 51.8017C92.3288 51.8017 89.6708 53.7783 89.6708 58.5804V71.198H84.5472V47.6575H89.6708V50.6709C91.2366 48.2245 93.7999 47.0467 97.0231 47.0467C102.339 47.0467 106.134 50.6239 106.134 56.7448ZM130.855 56.7448V71.198H125.732V57.2616C125.732 53.6844 123.645 51.8017 120.419 51.8017C117.05 51.8017 114.392 53.7783 114.392 58.5804V71.198H109.269V47.6575H114.392V50.6709C115.958 48.2245 118.521 47.0467 121.748 47.0467C127.058 47.0467 130.855 50.6239 130.855 56.7448ZM146.561 67.1477C149.408 67.1477 151.542 65.8759 152.682 64.2282L156.906 66.6778C154.724 69.8792 151.163 71.8088 146.516 71.8088C138.687 71.8088 133.611 66.4899 133.611 59.4262C133.611 52.4596 138.687 47.0435 146.138 47.0435C153.206 47.0435 158.045 52.6914 158.045 59.4731C158.045 60.178 157.951 60.9329 157.856 61.5907H138.972C139.777 65.2651 142.763 67.1477 146.561 67.1477ZM152.871 57.4496C152.158 53.3993 149.171 51.6577 146.087 51.6577C142.245 51.6577 139.634 53.9162 138.924 57.4496H152.871ZM161.126 36.8317H166.25V71.198H161.126V36.8317ZM0 59.4262C0 52.4126 5.36036 47.0435 12.5264 47.0435C17.1765 47.0435 21.2078 49.443 23.1083 53.1174L18.695 55.6609C17.65 53.4494 15.3266 52.0367 12.4791 52.0367C8.30256 52.0367 5.12675 55.1911 5.12675 59.4293C5.12675 63.6675 8.30571 66.8219 12.4791 66.8219C15.3266 66.8219 17.65 65.3622 18.7897 63.1976L23.203 65.6942C21.211 69.4125 17.1765 71.815 12.5264 71.815C5.36036 71.8088 0 66.3959 0 59.4262Z" fill="white"/>
<path d="M28.0929 34.5105V35.7885H26.8049V34.5105H28.0929ZM30.6721 37.0666V35.7885H31.9601V34.5105H30.6721V33.2324H29.3841V35.7916H28.0961V37.0697H30.6721V37.0666ZM26.8049 37.0666V38.3446H28.0929V37.0666H26.8049ZM29.3841 39.6258H30.6721V38.3477H28.0929V40.907H29.3809V39.6258H29.3841ZM26.8049 40.907V42.185H28.0929V40.907H26.8049ZM47.2551 47.316C44.114 46.4577 40.8846 47.7483 39.2146 50.5236L31.9601 62.6024V39.6258H30.6721V42.185H28.0929V43.463H29.3809V46.0223H28.0929V44.7442H26.8049V71.1979H32.8061L43.6468 53.1455C44.3666 51.9458 45.5441 52.1588 45.8882 52.2527C46.2323 52.3467 47.353 52.7602 47.353 54.1573V80.0001H52.5113V54.1573C52.505 50.9246 50.3962 48.1743 47.2551 47.316Z" fill="#FF46FA"/>
<path d="M31.9601 21.0251V34.5103H30.6721V33.2323H29.3841V35.7915H28.0961V34.5135H26.8081V21.0251C26.8081 19.628 25.6874 19.2145 25.3433 19.1206C24.9992 19.0266 23.8249 18.8136 23.1019 20.0133L12.2581 38.072H6.26007V0.0971064V0H11.4184V0.0971064V29.4702L18.6697 17.3914C20.3365 14.6129 23.5692 13.3255 26.7102 14.1838C29.8513 15.0421 31.9601 17.7893 31.9601 21.0251ZM26.805 37.0664H28.093V35.7884H26.805V37.0664ZM30.6721 38.3476V39.6257H31.9601V35.7884H30.6721V37.0664H28.093V38.3445H30.6721V38.3476ZM29.3841 40.9068H28.0961V42.1849H30.6753V39.6257H29.3873V40.9068H29.3841ZM28.093 38.3476H26.805V40.9068H28.093V38.3476ZM26.805 44.7441H28.093V46.0221H29.381V43.4629H28.093V42.1849H26.805V44.7441Z" fill="#DAFF02"/>
</svg>
