<svg width="48" height="48" viewBox="0 0 48 48" fill="none" xmlns="http://www.w3.org/2000/svg">
<path d="M12.0225 27.7125C12.0276 27.8141 12.012 27.9157 11.9765 28.0111C11.9411 28.1065 11.8867 28.1936 11.8165 28.2673C11.7464 28.3409 11.662 28.3996 11.5685 28.4396C11.4749 28.4796 11.3742 28.5002 11.2725 28.5H3.00001C2.66145 28.5006 2.33267 28.3865 2.06714 28.1765C1.80161 27.9664 1.61495 27.6728 1.53751 27.3432C1.48928 27.1176 1.49151 26.8841 1.54402 26.6595C1.59653 26.4349 1.69803 26.2246 1.84126 26.0438C3.16465 24.2888 4.92055 22.9069 6.93751 22.0332C6.05199 21.2258 5.37283 20.218 4.9569 19.0942C4.54097 17.9703 4.40038 16.7632 4.5469 15.5739C4.69343 14.3846 5.12281 13.2476 5.79908 12.2584C6.47535 11.2691 7.37881 10.4563 8.43381 9.88801C9.48881 9.31971 10.6646 9.01249 11.8628 8.99206C13.0609 8.97163 14.2465 9.23859 15.3203 9.77059C16.394 10.3026 17.3247 11.0841 18.0343 12.0498C18.7439 13.0154 19.2118 14.137 19.3988 15.3207C19.4229 15.4798 19.3944 15.6425 19.3176 15.784C19.2407 15.9255 19.1198 16.038 18.9731 16.1044C16.8926 17.0662 15.1306 18.6031 13.8951 20.5337C12.6595 22.4643 12.002 24.708 12 27C12 27.24 12 27.4763 12.0225 27.7125ZM46.1475 26.0419C44.8272 24.2889 43.0753 22.9078 41.0625 22.0332C41.948 21.2258 42.6272 20.218 43.0431 19.0942C43.459 17.9703 43.5996 16.7632 43.4531 15.5739C43.3066 14.3846 42.8772 13.2476 42.2009 12.2584C41.5247 11.2691 40.6212 10.4563 39.5662 9.88801C38.5112 9.31971 37.3354 9.01249 36.1372 8.99206C34.9391 8.97163 33.7535 9.23859 32.6797 9.77059C31.606 10.3026 30.6753 11.0841 29.9657 12.0498C29.2561 13.0154 28.7882 14.137 28.6013 15.3207C28.5771 15.4798 28.6056 15.6425 28.6824 15.784C28.7593 15.9255 28.8802 16.038 29.0269 16.1044C31.1074 17.0662 32.8694 18.6031 34.1049 20.5337C35.3405 22.4643 35.998 24.708 36 27C36 27.24 36 27.4763 35.9775 27.7125C35.9724 27.8141 35.9881 27.9157 36.0235 28.0111C36.0589 28.1065 36.1133 28.1936 36.1835 28.2673C36.2536 28.3409 36.338 28.3996 36.4316 28.4396C36.5251 28.4796 36.6258 28.5002 36.7275 28.5H45C45.3386 28.5006 45.6673 28.3865 45.9329 28.1765C46.1984 27.9664 46.3851 27.6728 46.4625 27.3432C46.511 27.1172 46.5088 26.8832 46.4559 26.6582C46.4031 26.4332 46.3009 26.2227 46.1569 26.0419H46.1475ZM29.46 34.1382C30.9535 32.9944 32.0511 31.4113 32.5984 29.6115C33.1458 27.8116 33.1154 25.8856 32.5115 24.1039C31.9077 22.3222 30.7607 20.7746 29.2318 19.6785C27.7029 18.5824 25.869 17.9929 23.9878 17.9929C22.1066 17.9929 20.2727 18.5824 18.7438 19.6785C17.2149 20.7746 16.068 22.3222 15.4641 24.1039C14.8602 25.8856 14.8298 27.8116 15.3772 29.6115C15.9245 31.4113 17.0221 32.9944 18.5156 34.1382C15.8654 35.2865 13.6524 37.2531 12.2006 39.75C12.069 39.9781 11.9997 40.2368 11.9997 40.5001C11.9997 40.7635 12.069 41.0221 12.2007 41.2502C12.3324 41.4782 12.5218 41.6676 12.7499 41.7992C12.978 41.9308 13.2367 42.0001 13.5 42H34.5C34.7633 42.0001 35.022 41.9308 35.2501 41.7992C35.4782 41.6676 35.6676 41.4782 35.7993 41.2502C35.931 41.0221 36.0003 40.7635 36.0003 40.5001C36.0004 40.2368 35.931 39.9781 35.7994 39.75C34.3445 37.2514 32.1274 35.2847 29.4731 34.1382H29.46Z" fill="#DAFF02"/>
</svg>
