<svg width="48" height="48" viewBox="0 0 48 48" fill="none" xmlns="http://www.w3.org/2000/svg">
<g clip-path="url(#clip0_142_120)">
<path d="M42.375 16.5149C42.3 16.3274 42.2212 16.1399 42.1406 15.9524C40.9309 13.1625 38.9731 10.7614 36.4837 9.01489H40.5C40.8978 9.01489 41.2794 8.85686 41.5607 8.57555C41.842 8.29425 42 7.91272 42 7.51489C42 7.11707 41.842 6.73554 41.5607 6.45423C41.2794 6.17293 40.8978 6.01489 40.5 6.01489H21C16.8527 6.02016 12.859 7.58493 9.81203 10.3985C6.76504 13.2121 4.8876 17.0686 4.5525 21.2024C3.2568 21.5245 2.10555 22.2695 1.28098 23.3196C0.456406 24.3697 0.00562785 25.6648 0 26.9999C0 27.3977 0.158035 27.7792 0.43934 28.0606C0.720644 28.3419 1.10218 28.4999 1.5 28.4999C1.89782 28.4999 2.27936 28.3419 2.56066 28.0606C2.84196 27.7792 3 27.3977 3 26.9999C3.00035 26.4529 3.15024 25.9164 3.43346 25.4485C3.71668 24.9805 4.12244 24.5989 4.60687 24.3449C4.98024 27.7102 6.38352 30.8783 8.625 33.4161L10.98 40.0086C11.1882 40.5918 11.5717 41.0962 12.078 41.4527C12.5842 41.8092 13.1883 42.0003 13.8075 41.9999H16.1925C16.8114 42 17.4151 41.8086 17.9209 41.4521C18.4268 41.0957 18.81 40.5915 19.0181 40.0086L19.3781 38.9999H30.1219L30.4819 40.0086C30.69 40.5915 31.0732 41.0957 31.5791 41.4521C32.0849 41.8086 32.6886 42 33.3075 41.9999H35.6925C36.3114 42 36.9151 41.8086 37.4209 41.4521C37.9268 41.0957 38.31 40.5915 38.5181 40.0086L41.5575 31.4999H42C43.1935 31.4999 44.3381 31.0258 45.182 30.1819C46.0259 29.338 46.5 28.1934 46.5 26.9999V20.9999C46.5002 19.8712 46.0762 18.7837 45.3121 17.953C44.5481 17.1222 43.4997 16.6089 42.375 16.5149ZM28.5 13.4999H21C20.6022 13.4999 20.2206 13.3419 19.9393 13.0606C19.658 12.7792 19.5 12.3977 19.5 11.9999C19.5 11.6021 19.658 11.2205 19.9393 10.9392C20.2206 10.6579 20.6022 10.4999 21 10.4999H28.5C28.8978 10.4999 29.2794 10.6579 29.5607 10.9392C29.842 11.2205 30 11.6021 30 11.9999C30 12.3977 29.842 12.7792 29.5607 13.0606C29.2794 13.3419 28.8978 13.4999 28.5 13.4999ZM33.75 23.9999C33.305 23.9999 32.87 23.8679 32.5 23.6207C32.13 23.3735 31.8416 23.0221 31.6713 22.6109C31.501 22.1998 31.4564 21.7474 31.5432 21.3109C31.63 20.8745 31.8443 20.4736 32.159 20.1589C32.4737 19.8442 32.8746 19.6299 33.311 19.5431C33.7475 19.4563 34.1999 19.5009 34.611 19.6712C35.0222 19.8415 35.3736 20.1298 35.6208 20.4999C35.868 20.8699 36 21.3049 36 21.7499C36 22.3466 35.7629 22.9189 35.341 23.3409C34.919 23.7628 34.3467 23.9999 33.75 23.9999Z" fill="#DAFF02"/>
</g>
<defs>
<clipPath id="clip0_142_120">
<rect width="48" height="48" fill="white"/>
</clipPath>
</defs>
</svg>
