<svg width="1440" height="16" viewBox="0 0 1440 16" fill="none" xmlns="http://www.w3.org/2000/svg">
<rect width="720" height="16" fill="#FF46FA"/>
<rect x="720" width="720" height="16" fill="#DAFF02"/>
<path d="M720.009 -5.24152e-07L720.009 3.99755L724.006 3.99755L724.006 -3.49434e-07L720.009 -5.24152e-07ZM716.002 12.0025L712.005 12.0025L712.005 16L724.006 16L724.006 12.0025L720.009 12.0025L720.009 3.99755L716.012 3.99755L716.012 12.0025L716.002 12.0025ZM707.998 8.0049L707.998 4.00734L704.001 4.00734L704.001 12.0122L712.005 12.0122L712.005 8.01469L707.998 8.01469L707.998 8.0049ZM716.002 3.99755L716.002 -6.99297e-07L707.998 -1.04916e-06L707.998 3.99755L716.002 3.99755ZM695.997 -1.57374e-06L695.997 3.99754L692 3.99754L692 7.9951L700.004 7.9951L700.004 3.99754L704.001 3.99754L704.001 -1.22388e-06L695.997 -1.57374e-06Z" fill="#DAFF02"/>
</svg>
