<svg width="1600" height="2724" viewBox="0 0 1600 2724" fill="none" xmlns="http://www.w3.org/2000/svg" shape-rendering="crispEdges">
<g clip-path="url(#clip0_473_2401)">
<path d="M708.085 2423.83H912.34L1280 1807.66C1303.83 1766.81 1344.68 1773.62 1354.89 1777.02C1365.11 1780.43 1405.96 1794.04 1405.96 1841.7V2723.4H1582.98V1845.11C1582.98 1736.17 1511.49 1640.85 1402.55 1613.62C1297.02 1582.98 1184.68 1627.23 1130.21 1722.55L885.106 2131.06" fill="#FF46FA"/>
<path d="M708.085 714.894C708.085 667.234 670.638 653.617 657.021 650.213C646.809 646.809 605.957 640 582.128 680.851L214.468 1297.02H10.2128V3.40426V0H187.234V3.40426V1004.26L435.745 592.34C493.617 497.021 602.553 452.766 708.085 483.404C813.617 510.638 888 605.957 888 714.894" fill="#DAFF02"/>
<path d="M888 1580H708V2424H888V1580Z" fill="#FF46FA"/>
<path d="M888 711H708V1130H888V711Z" fill="#DAFF02"/>
<g>
<path d="M753 1130H708V1175H753V1130Z" fill="#DAFF02"/>
<path d="M798 1130H753V1175H798V1130Z" fill="#DAFF02"/>
<path d="M843 1130.21H798V1175.21H843V1130.21Z" fill="#FF46FA"/>
<path d="M843 1175H798V1220H843V1175Z" fill="#FF46FA"/>
<path d="M843 1220H798V1265H843V1220Z" fill="#FF46FA"/>
<path d="M888 1175H843V1220H888V1175Z" fill="#FF46FA"/>
<path d="M753 1175H708V1220H753V1175Z" fill="#FF46FA"/>
<path d="M798 1220H753V1265H798V1220Z" fill="#FF46FA"/>
<path d="M753 1265H708V1310H753V1265Z" fill="#FF46FA"/>
<path d="M798 1310H753V1355H798V1310Z" fill="#FF46FA"/>
<path d="M843 1310H798V1355H843V1310Z" fill="#FF46FA"/>
<path d="M798 1355H753V1400H798V1355Z" fill="#FF46FA"/>
<path d="M888 1355H843V1400H888V1355Z" fill="#FF46FA"/>
<path d="M888 1400H843V1445H888V1400Z" fill="#FF46FA"/>
<path d="M753 1445V1400H708V1445H753Z" fill="#FF46FA"/>
<path d="M753 1580V1535H708V1580H753Z" fill="#FF46FA"/>
<path d="M798 1445H753V1490H798V1445Z" fill="#FF46FA"/>
<path d="M843 1445H798V1490H843V1445Z" fill="#FF46FA"/>
<path d="M888 1445H843V1490H888V1445Z" fill="#FF46FA"/>
<path d="M888 1490H843V1535H888V1490Z" fill="#FF46FA"/>
<path d="M843 1490H798V1535H843V1490Z" fill="#FF46FA"/>
<path d="M843 1535H798V1580H843V1535Z" fill="#FF46FA"/>
<path d="M888 1535H843V1580H888V1535Z" fill="#FF46FA"/>
<path d="M798 1175H753V1220H798V1175Z" fill="#DAFF02"/>
<path d="M753 1220H708V1265H753V1220Z" fill="#DAFF02"/>
<path d="M798 1265H753V1310H798V1265Z" fill="#DAFF02"/>
<path d="M843 1265H798V1310H843V1265Z" fill="#DAFF02"/>
<path d="M888 1265H843V1310H888V1265Z" fill="#DAFF02"/>
<path d="M753 1310H708V1355H753V1310Z" fill="#DAFF02"/>
<path d="M753 1355H708V1400H753V1355Z" fill="#DAFF02"/>
<path d="M753 1490H708V1535H753V1490Z" fill="#DAFF02"/>
<path d="M798 1490H753V1535H798V1490Z" fill="#DAFF02"/>
<path d="M798 1535H753V1580H798V1535Z" fill="#DAFF02"/>
<path d="M753 1445H708V1490H753V1445Z" fill="#DAFF02"/>
<path d="M843 1355H798V1400H843V1355Z" fill="#DAFF02"/>
<path d="M798 1400H753V1445H798V1400Z" fill="#DAFF02"/>
<path d="M843 1400H798V1445H843V1400Z" fill="#DAFF02"/>
<path d="M888 1310H843V1355H888V1310Z" fill="#DAFF02"/>
<path d="M888 1220H843V1265H888V1220Z" fill="#DAFF02"/>
<path d="M888 1130.21H843V1175.21H888V1130.21Z" fill="#DAFF02"/>
</g>
</g>
<defs>
<clipPath id="clip0_473_2401">
<rect width="1600" height="2723.4" fill="white"/>
</clipPath>
</defs>
</svg>
