<svg width="610" height="373" viewBox="0 0 610 373" fill="none" xmlns="http://www.w3.org/2000/svg">
<rect x="2" y="2.04297" width="606" height="368" rx="22" fill="#262626"/>
<text fill="white" xml:space="preserve" style="white-space: pre" font-family="Urbanist" font-size="11.25" font-weight="bold" letter-spacing="0em"><tspan x="205.712" y="34.1055">Inhouse Team</tspan></text>
<text fill="white" xml:space="preserve" style="white-space: pre" font-family="Urbanist" font-size="11.25" font-weight="bold" letter-spacing="0em"><tspan x="308.019" y="34.1055">Leading your </tspan><tspan x="327.591" y="46.3555">team</tspan></text>
<text fill="white" xml:space="preserve" style="white-space: pre" font-family="Urbanist" font-size="11.25" font-weight="bold" letter-spacing="0em"><tspan x="416.012" y="34.1055">Building a </tspan><tspan x="400.241" y="46.3555">dedicated team</tspan></text>
<text fill="white" xml:space="preserve" style="white-space: pre" font-family="Urbanist" font-size="11.25" font-weight="bold" letter-spacing="0em"><tspan x="500.471" y="34.1055">Fully outsourced </tspan><tspan x="496.121" y="46.3555">team &#38; processes</tspan></text>
<text fill="white" xml:space="preserve" style="white-space: pre" font-family="Urbanist" font-size="14.25" font-weight="bold" letter-spacing="0em"><tspan x="24" y="85.1555">Product Roadmap</tspan></text>
<text fill="white" xml:space="preserve" style="white-space: pre" font-family="Urbanist" font-size="14.25" font-weight="bold" letter-spacing="0em"><tspan x="24" y="124.155">Product Management</tspan></text>
<text fill="white" xml:space="preserve" style="white-space: pre" font-family="Urbanist" font-size="14.25" font-weight="bold" letter-spacing="0em"><tspan x="24" y="163.155">Team Management</tspan></text>
<text fill="white" xml:space="preserve" style="white-space: pre" font-family="Urbanist" font-size="14.25" font-weight="bold" letter-spacing="0em"><tspan x="24" y="202.155">HR Management</tspan></text>
<text fill="white" xml:space="preserve" style="white-space: pre" font-family="Urbanist" font-size="14.25" font-weight="bold" letter-spacing="0em"><tspan x="24" y="241.155">Task Management</tspan></text>
<text fill="white" xml:space="preserve" style="white-space: pre" font-family="Urbanist" font-size="14.25" font-weight="bold" letter-spacing="0em"><tspan x="24" y="280.155">Process Optimisation</tspan></text>
<circle cx="236" cy="81.043" r="8" fill="#FF46FA"/>
<circle cx="236" cy="120.043" r="8" fill="#FF46FA"/>
<circle cx="236" cy="159.043" r="8" fill="#FF46FA"/>
<circle cx="236" cy="198.043" r="8" fill="#FF46FA"/>
<circle cx="236" cy="237.043" r="8" fill="#FF46FA"/>
<circle cx="236" cy="276.043" r="8" fill="#FF46FA"/>
<circle cx="336.667" cy="81.043" r="8" fill="#FF46FA"/>
<circle cx="336.667" cy="120.043" r="8" fill="#FF46FA"/>
<circle cx="336.667" cy="159.043" r="8" fill="white"/>
<circle cx="336.667" cy="198.043" r="8" fill="white"/>
<circle cx="336.667" cy="237.043" r="8" fill="#DAFF02"/>
<circle cx="336.667" cy="276.043" r="8" fill="#DAFF02"/>
<circle cx="437.333" cy="81.043" r="8" fill="#FF46FA"/>
<circle cx="437.333" cy="120.043" r="8" fill="#FF46FA"/>
<circle cx="437.333" cy="159.043" r="8" fill="#DAFF02"/>
<circle cx="437.333" cy="198.043" r="8" fill="#DAFF02"/>
<circle cx="437.333" cy="237.043" r="8" fill="#DAFF02"/>
<circle cx="437.333" cy="276.043" r="8" fill="#DAFF02"/>
<circle cx="538" cy="81.043" r="8" fill="#FF46FA"/>
<circle cx="538" cy="120.043" r="8" fill="#DAFF02"/>
<circle cx="538" cy="159.043" r="8" fill="#DAFF02"/>
<circle cx="538" cy="198.043" r="8" fill="#DAFF02"/>
<circle cx="538" cy="237.043" r="8" fill="#DAFF02"/>
<circle cx="538" cy="276.043" r="8" fill="#DAFF02"/>
<line opacity="0.1" x1="24" y1="307.543" x2="586" y2="307.543" stroke="white"/>
<circle cx="215.5" cy="340.043" r="8" fill="#FF46FA"/>
<text fill="white" xml:space="preserve" style="white-space: pre" font-family="Urbanist" font-size="14.25" font-weight="bold" letter-spacing="0em"><tspan x="227.5" y="344.655">You</tspan></text>
<circle cx="283.5" cy="340.043" r="8" fill="#DAFF02"/>
<text fill="white" xml:space="preserve" style="white-space: pre" font-family="Urbanist" font-size="14.25" font-weight="bold" letter-spacing="0em"><tspan x="295.5" y="344.655">Us</tspan></text>
<circle cx="343.5" cy="340.043" r="8" fill="white"/>
<text fill="white" xml:space="preserve" style="white-space: pre" font-family="Urbanist" font-size="14.25" font-weight="bold" letter-spacing="0em"><tspan x="355.5" y="344.655">Shared</tspan></text>
<rect x="2" y="2.04297" width="606" height="368" rx="22" stroke="#262626" stroke-width="4"/>
</svg>
