<svg width="138" height="64" viewBox="0 0 138 64" fill="none" xmlns="http://www.w3.org/2000/svg">
<path d="M13 0.0429688L15.9187 9.02575H25.3637L17.7225 14.5774L20.6412 23.5602L13 18.0085L5.35879 23.5602L8.27747 14.5774L0.636266 9.02575H10.0813L13 0.0429688Z" fill="#262626"/>
<path d="M41 0.0429688L43.9187 9.02575H53.3637L45.7225 14.5774L48.6412 23.5602L41 18.0085L33.3588 23.5602L36.2775 14.5774L28.6363 9.02575H38.0813L41 0.0429688Z" fill="#262626"/>
<path d="M69 0.0429688L71.9187 9.02575H81.3637L73.7225 14.5774L76.6412 23.5602L69 18.0085L61.3588 23.5602L64.2775 14.5774L56.6363 9.02575H66.0813L69 0.0429688Z" fill="#262626"/>
<path d="M97 0.0429688L99.9187 9.02575H109.364L101.723 14.5774L104.641 23.5602L97 18.0085L89.3588 23.5602L92.2775 14.5774L84.6363 9.02575H94.0813L97 0.0429688Z" fill="#262626"/>
<path d="M125 0.0429688L127.919 9.02575H137.364L129.723 14.5774L132.641 23.5602L125 18.0085L117.359 23.5602L120.277 14.5774L112.636 9.02575H122.081L125 0.0429688Z" fill="#262626"/>
<g clip-path="url(#clip0_375_5217)">
<path d="M47.9305 38.043H51.9305V63.043H47.9305V38.043ZM65.9305 55.068C65.9305 58.894 62.7135 59.199 61.7565 59.199C59.3655 59.199 58.9305 56.961 58.9305 55.611V46.043H54.9305V55.591C54.9305 57.961 55.6745 59.917 56.9785 61.221C58.1305 62.374 59.8565 63.004 61.7265 63.004C63.0525 63.004 64.9305 62.591 65.9305 61.678V63.043H69.9305V46.043H65.9305V55.068ZM77.9305 40.043H73.9305V46.043H70.9305V50.043H73.9305V63.043H77.9305V50.043H80.9305V46.043H77.9305V40.043ZM93.5275 57.96C92.6565 58.743 91.5065 59.177 90.2445 59.177C87.4625 59.177 85.4195 57.134 85.4195 54.329C85.4195 51.524 87.3975 49.567 90.2445 49.567C91.4845 49.567 92.6565 49.98 93.5495 50.763L94.1565 51.285L96.8535 48.589L96.1785 47.98C94.5915 46.547 92.4845 45.743 90.2435 45.743C85.2435 45.743 81.6125 49.351 81.6125 54.308C81.6125 59.244 85.3305 62.981 90.2435 62.981C92.5265 62.981 94.6555 62.177 96.2225 60.721L96.8745 60.112L94.1355 57.418L93.5275 57.96ZM111.13 47.525C109.978 46.373 108.629 45.743 106.759 45.743C105.433 45.743 103.931 46.156 102.931 47.068V38.043H98.9305V63.043H102.931V53.678C102.931 49.852 105.649 49.548 106.606 49.548C108.997 49.548 108.931 51.787 108.931 53.135V63.043H112.931V53.156C112.931 50.786 112.435 48.83 111.13 47.525Z" fill="#262626"/>
<path d="M90.1125 51.4814C90.8795 51.4814 91.6151 51.7861 92.1575 52.3285C92.6998 52.8708 93.0045 53.6064 93.0045 54.3734C93.0045 55.1405 92.6998 55.876 92.1575 56.4184C91.6151 56.9608 90.8795 57.2654 90.1125 57.2654C89.3455 57.2654 88.6099 56.9608 88.0675 56.4184C87.5252 55.876 87.2205 55.1405 87.2205 54.3734C87.2205 53.6064 87.5252 52.8708 88.0675 52.3285C88.6099 51.7861 89.3455 51.4814 90.1125 51.4814Z" fill="#E62415"/>
<path d="M42.3305 56.7642C40.8095 58.3292 38.7435 59.1772 36.5695 59.1772C32.1135 59.1772 28.8735 55.6772 28.8735 50.8732C28.8735 46.0472 32.1135 42.5472 36.5695 42.5472C38.7225 42.5472 40.7655 43.3942 42.3095 44.9382L42.9175 45.5472L45.5915 42.8732L45.0045 42.2642C42.7875 39.9812 39.7875 38.7432 36.5695 38.7432C30.0045 38.7432 25.0695 43.9602 25.0695 50.8942C25.0695 57.8072 30.0265 63.0032 36.5695 63.0032C39.8095 63.0032 42.8095 61.7432 45.0265 59.4602L45.6135 58.8512L42.9615 56.1342L42.3305 56.7642Z" fill="#262626"/>
</g>
<defs>
<clipPath id="clip0_375_5217">
<rect x="25.0695" y="38.043" width="87.861" height="25" fill="white"/>
</clipPath>
</defs>
</svg>
