<svg xmlns="http://www.w3.org/2000/svg" xmlns:xlink="http://www.w3.org/1999/xlink" id="Layer_1" x="0px" y="0px" viewBox="0 0 516 234.5" style="enable-background:new 0 0 516 234.5;" xml:space="preserve">
<style type="text/css">
	.st0{fill:url(#SVGID_2_);}
	.st1{fill:url(#SVGID_3_);}
	.st2{fill:url(#SVGID_5_);}
	.st3{fill:url(#SVGID_6_);}
	.st4{fill:url(#SVGID_8_);}
	.st5{fill:url(#SVGID_9_);}
	.st6{fill:url(#SVGID_11_);}
	.st7{fill:url(#SVGID_12_);}
	.st8{fill:url(#SVGID_13_);}
	.st9{fill:url(#SVGID_14_);}
	.st10{fill:url(#SVGID_15_);}
	.st11{fill:url(#SVGID_16_);}
	.st12{fill:url(#SVGID_17_);}
	.st13{fill:url(#SVGID_18_);}
	.st14{fill:url(#SVGID_19_);}
	.st15{fill:url(#SVGID_20_);}
</style>
<g>
	<g>
		<g>
			<g>
				
					<linearGradient id="SVGID_2_" gradientUnits="userSpaceOnUse" x1="36.7" y1="455.3003" x2="36.7" y2="297.7973" gradientTransform="matrix(1 0 0 1 0 -243.8898)">
					<stop offset="0" style="stop-color:#74A245"></stop>
					<stop offset="1" style="stop-color:#9DBE46"></stop>
				</linearGradient>
				<path id="SVGID_1_" class="st0" d="M11.4,66.1H25v82.7h13.4V66.1H62V54.6H38.4V41.9c0-12.6,1.9-17.2,15.3-17.2      c2.7,0,5.6,0.2,8.3,0.4V13.6c-2.7-0.2-5.6-0.4-8.3-0.4C31.8,13.2,25,20.4,25,43.3v11.3H11.4V66.1"></path>
			</g>
		</g>
	</g>
	<g>
		<g>
			<g>
				
					<linearGradient id="SVGID_3_" gradientUnits="userSpaceOnUse" x1="111.9995" y1="455.3013" x2="111.9995" y2="297.7975" gradientTransform="matrix(1 0 0 1 0 -243.8898)">
					<stop offset="0" style="stop-color:#74A245"></stop>
					<stop offset="1" style="stop-color:#9DBE46"></stop>
				</linearGradient>
				<path id="SVGID_4_" class="st1" d="M112,138.4c-23.9,0-25.6-3.9-25.6-36.6C86.4,69,88.1,65,112,65s25.6,3.9,25.6,36.8      C137.6,134.4,135.9,138.4,112,138.4 M112,149.9c33.1,0,39.5-8.4,39.5-48.1c0-39.8-6.5-48.2-39.5-48.2      c-33.1,0-39.5,8.4-39.5,48.2C72.4,141.4,78.9,149.9,112,149.9"></path>
			</g>
		</g>
	</g>
	<g>
		<g>
			<g>
				
					<linearGradient id="SVGID_5_" gradientUnits="userSpaceOnUse" x1="203.6499" y1="455.3013" x2="203.6499" y2="297.797" gradientTransform="matrix(1 0 0 1 0 -243.8898)">
					<stop offset="0" style="stop-color:#74A245"></stop>
					<stop offset="1" style="stop-color:#9DBE46"></stop>
				</linearGradient>
				<path id="SVGID_7_" class="st2" d="M166.3,115.1c0,24.7,8.5,34.8,32.5,34.8c11.9,0,23.5-2.2,28.3-13.6h0.3v12.5h13.8V54.7h-13.7      v58.1c0,22.4-9.9,25.6-29,25.6c-17.6,0-18.7-8.1-18.7-23.3V54.7h-13.7v60.4"></path>
			</g>
		</g>
	</g>
	<g>
		<g>
			<g>
				
					<linearGradient id="SVGID_6_" gradientUnits="userSpaceOnUse" x1="290.7" y1="455.2993" x2="290.7" y2="297.7966" gradientTransform="matrix(1 0 0 1 0 -243.8898)">
					<stop offset="0" style="stop-color:#74A245"></stop>
					<stop offset="1" style="stop-color:#9DBE46"></stop>
				</linearGradient>
				<path id="SVGID_10_" class="st3" d="M259.4,148.8h13.4V90.2c-0.3-16.7,5.1-25.1,21.7-25.1c11.2,0,14.9,3.9,14.9,15.6V87h12.7      v-6.8c0-17.6-7.6-26.5-24.8-26.5c-10,0-20.7,2.7-25.3,13.1l-0.3-0.4l0.7-11.7h-13.1L259.4,148.8"></path>
			</g>
		</g>
	</g>
	
		<linearGradient id="SVGID_8_" gradientUnits="userSpaceOnUse" x1="35.75" y1="448.8482" x2="35.75" y2="414.5574" gradientTransform="matrix(1 0 0 1 0 -243.8898)">
		<stop offset="0" style="stop-color:#74A245"></stop>
		<stop offset="1" style="stop-color:#9DBE46"></stop>
	</linearGradient>
	<path class="st4" d="M42.4,192.8c0-7,0.2-11.1-6.2-11.1c-7.2,0-7,3.7-7,11.1c0,6.6,0.9,9.2,7,9.2C41,202,42.4,200.6,42.4,192.8    M28.9,181.1h0.2c1.8-4.1,5-5,9.1-5c10.9,0,11.2,7.2,11.2,16.7c0,9.1-1.2,14.9-11.2,14.9c-3.6,0-7.3-0.7-8.8-4.5h-0.3v17.5h-7   v-44.3h7L28.9,181.1z"></path>
	
		<linearGradient id="SVGID_9_" gradientUnits="userSpaceOnUse" x1="68.35" y1="448.8491" x2="68.35" y2="414.5575" gradientTransform="matrix(1 0 0 1 0 -243.8898)">
		<stop offset="0" style="stop-color:#74A245"></stop>
		<stop offset="1" style="stop-color:#9DBE46"></stop>
	</linearGradient>
	<path class="st5" d="M61.9,197.8c0,4.4,1.7,4.8,6.4,4.8c3.7,0,6.5-0.4,6.5-4.8c0-4.3-3-4.4-6.5-4.4   C64.8,193.4,61.9,193.4,61.9,197.8 M75.1,203.4h-0.2c-1.4,4.1-5.7,4.3-9.1,4.3c-6.6,0-10.9-1.5-10.9-9.8c0-7.4,3.7-9.5,10.9-9.5   c3.6,0,7.1,0.1,8.7,3.5h0.2v-4c0-5-0.4-6.8-6.2-6.8c-3.1,0-5.5,0.3-5.5,4.3h-7c0-9,5.8-9.4,12.5-9.4c9.4,0,13.3,1.5,13.3,11.9v19.4   h-7L75.1,203.4z"></path>
	
		<linearGradient id="SVGID_11_" gradientUnits="userSpaceOnUse" x1="101.7" y1="448.8491" x2="101.7" y2="414.5575" gradientTransform="matrix(1 0 0 1 0 -243.8898)">
		<stop offset="0" style="stop-color:#74A245"></stop>
		<stop offset="1" style="stop-color:#9DBE46"></stop>
	</linearGradient>
	<path class="st6" d="M114.9,195.6c0,10.1-3.5,12.1-13.3,12.1c-10.8,0-13.1-3.3-13.1-15.8c0-10.8,1.6-15.8,13.1-15.8   c8.7,0,13.3,1.4,13.3,11.2h-7c0-4.7-1.4-5.5-6.3-5.5c-6,0-6.1,2.2-6.1,10.2c0,7.7-0.1,10.1,6.1,10.1c5.7,0,6.3-1.1,6.3-6.5   L114.9,195.6"></path>
	
		<linearGradient id="SVGID_12_" gradientUnits="userSpaceOnUse" x1="134" y1="448.8491" x2="134" y2="414.5587" gradientTransform="matrix(1 0 0 1 0 -243.8898)">
		<stop offset="0" style="stop-color:#74A245"></stop>
		<stop offset="1" style="stop-color:#9DBE46"></stop>
	</linearGradient>
	<polyline class="st7" points="127.6,188.4 129.3,188.4 137.5,176.4 145.4,176.4 135,191 147.5,207.3 139,207.3 129.3,193.5    127.6,193.5 127.6,207.3 120.5,207.3 120.5,163.2 127.6,163.2 127.6,188.4  "></polyline>
	
		<linearGradient id="SVGID_13_" gradientUnits="userSpaceOnUse" x1="163.6" y1="448.8491" x2="163.6" y2="414.5575" gradientTransform="matrix(1 0 0 1 0 -243.8898)">
		<stop offset="0" style="stop-color:#74A245"></stop>
		<stop offset="1" style="stop-color:#9DBE46"></stop>
	</linearGradient>
	<path class="st8" d="M157.1,197.8c0,4.4,1.7,4.8,6.4,4.8c3.7,0,6.5-0.4,6.5-4.8c0-4.3-3-4.4-6.5-4.4S157.1,193.4,157.1,197.8    M170.3,203.4h-0.2c-1.4,4.1-5.7,4.3-9.1,4.3c-6.6,0-10.9-1.5-10.9-9.8c0-7.4,3.7-9.5,10.9-9.5c3.6,0,7.1,0.1,8.8,3.5h0.2v-4   c0-5-0.4-6.8-6.2-6.8c-3.1,0-5.5,0.3-5.5,4.3h-7c0-9,5.8-9.4,12.5-9.4c9.3,0,13.3,1.5,13.3,11.9v19.4h-7L170.3,203.4z"></path>
	
		<linearGradient id="SVGID_14_" gradientUnits="userSpaceOnUse" x1="197" y1="448.8482" x2="197" y2="414.5574" gradientTransform="matrix(1 0 0 1 0 -243.8898)">
		<stop offset="0" style="stop-color:#74A245"></stop>
		<stop offset="1" style="stop-color:#9DBE46"></stop>
	</linearGradient>
	<path class="st9" d="M190.5,191c0,7,0,11.1,6.2,11.1c7,0,7-3.7,7-11.1c0-6.6-0.9-9.2-7-9.2C191.8,181.7,190.5,183.2,190.5,191    M203.9,202.9h-0.2c-1.8,4.1-5.6,4.8-9.1,4.8c-10,0-11.2-5.8-11.2-14.9c0-9.5,0.3-16.7,11.2-16.7c4.1,0,7.4,0.9,9.1,5h0.2l-0.3-4.6   h7v30.9c0,11.1-3.3,13.8-14,13.8c-7.1,0-12.5-1.3-12-10.5h6.6c0,4.2,1.5,4.9,5.5,4.9c6,0,7.2-1.3,7.2-6.6L203.9,202.9L203.9,202.9z   "></path>
	
		<linearGradient id="SVGID_15_" gradientUnits="userSpaceOnUse" x1="221.3" y1="448.8482" x2="221.3" y2="414.5567" gradientTransform="matrix(1 0 0 1 0 -243.8898)">
		<stop offset="0" style="stop-color:#74A245"></stop>
		<stop offset="1" style="stop-color:#9DBE46"></stop>
	</linearGradient>
	<rect x="217.8" y="176.4" class="st10" width="7" height="30.9"></rect>
	
		<linearGradient id="SVGID_16_" gradientUnits="userSpaceOnUse" x1="245.05" y1="448.8482" x2="245.05" y2="414.5569" gradientTransform="matrix(1 0 0 1 0 -243.8898)">
		<stop offset="0" style="stop-color:#74A245"></stop>
		<stop offset="1" style="stop-color:#9DBE46"></stop>
	</linearGradient>
	<path class="st11" d="M238.9,176.4v4.6h0.2c1.6-4.5,5.1-5,9.2-5c7.7,0,10,3.4,10,10.9v20.4h-7v-19.6c0-4.5-1-6-5.5-6   c-6.1,0-7,3.1-7,8.6v17h-7v-30.9H238.9"></path>
	
		<linearGradient id="SVGID_17_" gradientUnits="userSpaceOnUse" x1="278.2" y1="448.8482" x2="278.2" y2="414.5574" gradientTransform="matrix(1 0 0 1 0 -243.8898)">
		<stop offset="0" style="stop-color:#74A245"></stop>
		<stop offset="1" style="stop-color:#9DBE46"></stop>
	</linearGradient>
	<path class="st12" d="M271.7,191c0,7,0,11.1,6.2,11.1c7,0,7-3.7,7-11.1c0-6.6-0.9-9.2-7-9.2C273.1,181.7,271.7,183.2,271.7,191    M285.1,202.9h-0.2c-1.9,4.1-5.6,4.8-9.1,4.8c-10,0-11.2-5.8-11.2-14.9c0-9.5,0.3-16.7,11.2-16.7c4.1,0,7.3,0.9,9.1,5h0.2l-0.3-4.6   h7v30.9c0,11.1-3.4,13.8-14,13.8c-7.1,0-12.5-1.3-12-10.5h6.6c0,4.2,1.5,4.9,5.5,4.9c6,0,7.2-1.3,7.2-6.6V202.9L285.1,202.9z"></path>
	<g>
		<g>
			<g>
				
					<linearGradient id="SVGID_18_" gradientUnits="userSpaceOnUse" x1="374.95" y1="455.2993" x2="374.95" y2="297.797" gradientTransform="matrix(1 0 0 1 0 -243.8898)">
					<stop offset="0" style="stop-color:#74A245"></stop>
					<stop offset="1" style="stop-color:#9DBE46"></stop>
				</linearGradient>
				<path id="SVGID_22_" class="st13" d="M375,135.3c-17.9,0-22-0.8-22-21.4V86.5C353,66,357.2,65,375,65c17.7,0,22,1.1,22,21.5      v27.4C397,134.5,392.7,135.3,375,135.3 M335.7,109.4c0,35.9,10.8,41.8,39.3,41.8s39.2-5.9,39.2-41.8V91.2      c0-35.9-10.8-42-39.2-42c-32.4,0-39.3,8.2-39.3,41.7V109.4L335.7,109.4z"></path>
			</g>
		</g>
	</g>
	<g>
		<g>
			<g>
				
					<linearGradient id="SVGID_19_" gradientUnits="userSpaceOnUse" x1="464.6" y1="455.3013" x2="464.6" y2="297.797" gradientTransform="matrix(1 0 0 1 0 -243.8898)">
					<stop offset="0" style="stop-color:#74A245"></stop>
					<stop offset="1" style="stop-color:#9DBE46"></stop>
				</linearGradient>
				<path id="SVGID_25_" class="st14" d="M439,114.3l36.7-50.5h0.5v50.5H439 M424.6,128.9h51.7v21.4h17.2v-21.4h11.1v-14.6h-11.1      V49.9h-26.8l-42,57.9v21.1H424.6z"></path>
			</g>
		</g>
	</g>
	
		<linearGradient id="SVGID_20_" gradientUnits="userSpaceOnUse" x1="221.3" y1="448.8491" x2="221.3" y2="414.5583" gradientTransform="matrix(1 0 0 1 0 -243.8898)">
		<stop offset="0" style="stop-color:#74A245"></stop>
		<stop offset="1" style="stop-color:#9DBE46"></stop>
	</linearGradient>
	<rect x="217.8" y="167" class="st15" width="7" height="6.1"></rect>
</g>
</svg>