<svg width="44" height="13" viewBox="0 0 44 13" fill="none" xmlns="http://www.w3.org/2000/svg">
<path d="M11.8525 0.0214844H13.7961V12.0215H11.8525V0.0214844Z" fill="white"/>
<path d="M20.5567 8.21866C20.5567 10.0778 19.0356 10.2468 18.5285 10.2468C17.3454 10.2468 17.1764 9.14824 17.1764 8.55669V3.90881H15.2327V8.47219C15.2327 9.57078 15.5708 10.5849 16.2468 11.1764C16.8384 11.768 17.5989 12.0215 18.5285 12.0215C19.2046 12.0215 20.0496 11.8525 20.5567 11.3454V12.0215H22.5003V3.90881H20.5567V8.21866Z" fill="white"/>
<path d="M26.3032 0.951065H24.3595V3.90881H22.9229V5.76797H24.3595V12.0215H26.3032V5.76797H27.7398V3.90881H26.3032V0.951065Z" fill="white"/>
<path d="M33.8243 9.57078C33.4018 9.90881 32.8102 10.1623 32.2187 10.1623C30.8665 10.1623 29.937 9.14824 29.937 7.79613C29.937 6.44402 30.8665 5.51444 32.2187 5.51444C32.8102 5.51444 33.4018 5.68345 33.8243 6.10599L34.0778 6.35951L35.4299 5.0919L35.0919 4.83838C34.3313 4.16233 33.3173 3.73979 32.2187 3.73979C29.8525 3.73979 28.0778 5.51444 28.0778 7.88064C28.0778 10.2468 29.8525 12.0215 32.2187 12.0215C33.3173 12.0215 34.3313 11.5989 35.0919 10.9229L35.4299 10.6694L34.0778 9.31726L33.8243 9.57078Z" fill="white"/>
<path d="M42.275 4.58487C41.6834 3.99332 41.0919 3.7398 40.1623 3.7398C39.4863 3.7398 38.8102 3.90881 38.3032 4.41585V0.0214844H36.3595V12.0215H38.3032V7.54261C38.3032 5.68346 39.5708 5.51444 40.0778 5.51444C41.2609 5.51444 41.1764 6.61303 41.1764 7.20458V11.937H43.1201V7.28909C43.1201 6.1905 42.8665 5.17642 42.275 4.58487Z" fill="white"/>
<path d="M32.1341 9.23276C32.8809 9.23276 33.4863 8.6274 33.4863 7.88065C33.4863 7.1339 32.8809 6.52853 32.1341 6.52853C31.3874 6.52853 30.782 7.1339 30.782 7.88065C30.782 8.6274 31.3874 9.23276 32.1341 9.23276Z" fill="white"/>
<path d="M9.14823 9.06373C8.47218 9.73979 7.45809 10.1623 6.3595 10.1623C4.24682 10.1623 2.72569 8.47218 2.72569 6.19049C2.72569 3.9088 4.24682 2.21866 6.444 2.21866C7.45809 2.21866 8.47217 2.6412 9.23274 3.40176L9.48626 3.65528L10.7539 2.38768L10.5003 2.13416C9.40175 1.03556 7.96513 0.444016 6.444 0.444016C3.23274 0.359509 0.866539 2.89472 0.866539 6.19049C0.866539 9.48627 3.23274 12.0215 6.3595 12.0215C7.88063 12.0215 9.40175 11.4299 10.4158 10.3313L10.6694 10.0778L9.40175 8.81021L9.14823 9.06373Z" fill="white"/>
</svg>
