<svg width="17" height="17" viewBox="0 0 17 17" fill="none" xmlns="http://www.w3.org/2000/svg">
<g clip-path="url(#clip0_43_2462)">
<path d="M12.6799 0.0214844H10.5799C8.27991 0.0214844 6.77991 1.52148 6.77991 3.92148V5.72148H4.67991C4.57991 5.72148 4.37991 5.82148 4.37991 6.02148V8.62148C4.37991 8.82148 4.57991 9.02148 4.67991 9.02148H6.77991V15.6215C6.77991 15.8215 6.87991 15.9215 7.07991 15.9215H9.77991C9.97991 15.9215 10.0799 15.8215 10.0799 15.6215V9.02148H12.4799C12.6799 9.02148 12.8799 8.82148 12.8799 8.62148V6.02148C12.8799 5.92148 12.8799 5.82148 12.7799 5.82148C12.6799 5.72148 12.6799 5.72148 12.5799 5.72148H10.0799V4.22148C10.0799 3.52148 10.2799 3.12148 11.1799 3.12148H12.5799C12.7799 3.12148 12.8799 3.02148 12.8799 2.82148V0.321484C12.9799 0.121484 12.7799 0.0214844 12.6799 0.0214844Z" fill="white"/>
</g>
<defs>
<clipPath id="clip0_43_2462">
<rect width="16" height="16" fill="white" transform="translate(0.879913 0.0214844)"/>
</clipPath>
</defs>
</svg>
