<svg width="21" height="21" viewBox="0 0 21 21" fill="none" xmlns="http://www.w3.org/2000/svg">
<g clip-path="url(#clip0_43_2476)">
<path d="M16.6999 0.0214844H5.03321C2.73237 0.0214844 0.866539 1.88732 0.866539 4.18815V15.8548C0.866539 18.1557 2.73237 20.0215 5.03321 20.0215H16.6999C19.0015 20.0215 20.8665 18.1557 20.8665 15.8548V4.18815C20.8665 1.88732 19.0015 0.0214844 16.6999 0.0214844ZM7.53321 15.8548H5.03321V6.68815H7.53321V15.8548ZM6.28321 5.63148C5.47821 5.63148 4.82487 4.97315 4.82487 4.16148C4.82487 3.34982 5.47821 2.69148 6.28321 2.69148C7.08821 2.69148 7.74154 3.34982 7.74154 4.16148C7.74154 4.97315 7.08904 5.63148 6.28321 5.63148ZM17.5332 15.8548H15.0332V11.1848C15.0332 8.37815 11.6999 8.59065 11.6999 11.1848V15.8548H9.19987V6.68815H11.6999V8.15898C12.8632 6.00398 17.5332 5.84482 17.5332 10.2223V15.8548Z" fill="white"/>
</g>
<defs>
<clipPath id="clip0_43_2476">
<rect width="20" height="20" fill="white" transform="translate(0.866539 0.0214844)"/>
</clipPath>
</defs>
</svg>
