<?xml version="1.0" encoding="UTF-8"?>
<svg xmlns="http://www.w3.org/2000/svg" viewBox="0 0 255.39 255.39">
  <rect width="100%" height="100%" fill="#262626"/>	
  <switch>
    <g transform="translate(34, 0)">
      <path d="m88.99 110.17v4.08h-4.08v-4.08zm8.17 8.16v-4.08h4.08v-4.08h-4.08v-4.08h-4.08v8.17h-4.08v4.08h8.16zm-12.25 0v4.08h4.08v-4.08zm8.17 8.17h4.08v-4.08h-8.17v8.17h4.08v-4.09zm-8.17 4.09v4.08h4.08v-4.08zm64.78 20.46c-9.95-2.74-20.18 1.38-25.47 10.24l-22.98 38.56v-73.35h-4.08v8.17h-8.17v4.08h4.08v8.17h-4.08v-4.08h-4.08v84.45h19.01l34.34-57.63c2.28-3.83 6.01-3.15 7.1-2.85s4.64 1.62 4.64 6.08v82.5h16.34v-82.5c-.02-10.32-6.7-19.1-16.65-21.84z" fill="#ff46fa"></path>
      <path d="m101.24 67.12v43.05h-4.08v-4.08h-4.08v8.17h-4.08v-4.08h-4.08v-43.06c0-4.46-3.55-5.78-4.64-6.08s-4.81-.98-7.1 2.85l-34.35 57.65h-19v-121.23-.31h16.34v.31 93.77l22.97-38.56c5.28-8.87 15.52-12.98 25.47-10.24s16.63 11.51 16.63 21.84zm-16.33 51.21h4.08v-4.08h-4.08zm12.25 4.09v4.08h4.08v-12.25h-4.08v4.08h-8.17v4.08h8.17zm-4.08 8.17h-4.08v4.08h8.17v-8.17h-4.08v4.09zm-4.09-8.17h-4.08v8.17h4.08zm-4.08 20.42h4.08v4.08h4.08v-8.17h-4.08v-4.08h-4.08z" fill="#daff02"></path>
    </g>
  </switch>
</svg>
